<svg xmlns="http://www.w3.org/2000/svg" xmlns:xlink="http://www.w3.org/1999/xlink" version="1.1" id="Your_Icon" x="0px" y="0px" width="125px" height="125px" viewBox="0 0 100 100" enable-background="new 0 0 100 100" xml:space="preserve" fill="white">
<path id="ribbon_2_" d="M100.019,11.885c0-0.544-0.003-1.094-0.003-1.661c0-6.894-14.791-22.563-50.015,7.773  C14.774-12.338-0.018,3.331-0.018,10.224c0,0.567-0.002,1.117-0.002,1.661c-0.07-0.523-0.123-1.06-0.123-1.638V43.32  c0,11.245,13.641,12.87,26.693,11.854L10.29,90.036c-0.698,1.5,0.002,2.264,1.555,1.698l7.677-2.792  c1.552-0.563,3.287,0.242,3.854,1.797l2.794,7.675c0.568,1.555,1.604,1.599,2.302,0.099l21.255-45.578l16.694,45.867  c0.568,1.558,1.602,1.602,2.3,0.102l3.45-7.398c0.701-1.5,2.5-2.156,4-1.455l7.398,3.453c1.5,0.697,2.266,0,1.698-1.561  L71.836,55.036c13.516,1.271,28.305-0.005,28.305-11.716V10.248C100.141,10.826,100.089,11.362,100.019,11.885z M7.943,10.867  c6.05-11.047,32.302,9.352,32.302,9.352S2.118,21.508,7.943,10.867z M50.001,48.255c-5.539,0-10.031-4.487-10.031-10.026  s4.492-10.028,10.031-10.028c5.536,0,10.028,4.489,10.028,10.028S55.537,48.255,50.001,48.255z M59.753,20.219  c0,0,26.255-20.398,32.302-9.352C97.883,21.508,59.753,20.219,59.753,20.219z"/>
</svg>