<svg xmlns="http://www.w3.org/2000/svg" xmlns:xlink="http://www.w3.org/1999/xlink" version="1.1" x="0px" y="0px" viewBox="0 0 100 125" enable-background="new 0 0 100 100" xml:space="preserve" fill="white"><path d="M39.656,15.147c-0.006-0.033-0.013-0.061-0.022-0.08C39.635,15.088,39.644,15.116,39.656,15.147z"/><path d="M50,92.57C26.527,92.57,7.43,73.474,7.43,50C7.43,26.527,26.527,7.43,50,7.43c23.474,0,42.57,19.097,42.57,42.57  C92.57,73.474,73.474,92.57,50,92.57z M50,11.43c-21.268,0-38.57,17.303-38.57,38.57S28.732,88.57,50,88.57S88.57,71.268,88.57,50  S71.268,11.43,50,11.43z M66.688,36.895c-1.952,0.42-3.093-0.336-4.437,0.744c-1.165,0.884-1.174,1.74-1.228,2.345  c-0.055,0.616,0.004,1.407-0.428,1.716c-2.235,1.604-4.515,3.146-6.837,4.625c0.446,0.457,0.811,0.995,1.069,1.589  c2.213-1.65,4.472-3.236,6.771-4.76c0.442-0.293,1.161,0.043,1.756,0.21c0.584,0.165,1.388,0.46,2.628-0.315  c1.486-0.872,1.186-2.207,2.271-3.883c1.038-1.604,3.553-4.077,3.793-4.292C71.761,35.022,68.556,36.495,66.688,36.895z   M49.124,44.814c-1.361-4.222-2.615-8.477-3.764-12.76c-0.184-0.688,0.329-1.39,0.642-2.029c0.308-0.627,0.801-1.454,0.331-3.355  c-0.506-2.25-1.914-2.561-3.321-4.732c-1.347-2.076-3.2-6.389-3.356-6.79c0.077,0.423,0.76,5.068,0.701,7.542  c-0.061,2.587-1.097,3.59-0.348,5.771c0.597,1.866,1.45,2.312,2.041,2.684c0.602,0.379,1.407,0.709,1.61,1.391  c1.284,4.31,2.464,8.65,3.53,13.021C47.769,45.189,48.422,44.932,49.124,44.814z M54.542,50c0-2.508-2.034-4.542-4.542-4.542  c-2.508,0-4.542,2.033-4.542,4.542c0,2.509,2.034,4.542,4.542,4.542C52.508,54.542,54.542,52.509,54.542,50z M50,12.943  c-3.507,0-6.897,0.5-10.114,1.415l0.236,0.609c0.04,0.104,0.243,0.585,0.543,1.26c2.71-0.75,5.511-1.18,8.334-1.261v5.373  c-1.988,0.067-3.961,0.347-5.888,0.807c0.108,0.184,0.216,0.36,0.319,0.52c0.32,0.494,0.636,0.878,0.948,1.223  c1.815-0.376,3.695-0.575,5.621-0.575c15.267,0,27.687,12.42,27.687,27.687S65.267,77.687,50,77.687S22.313,65.267,22.313,50  c0-11.616,7.193-21.577,17.357-25.68c0.095-0.485,0.172-1.009,0.187-1.643c0.004-0.174,0.003-0.361,0.001-0.555  c-1.311,0.477-2.592,1.034-3.822,1.692l-2.685-4.65c1.918-1.039,3.936-1.885,6.012-2.546c-0.099-0.744-0.18-1.269-0.2-1.38  l-0.117-0.641C23.944,19.278,12.943,33.378,12.943,50c0,20.434,16.624,37.058,37.057,37.058c20.433,0,37.057-16.624,37.057-37.058  S70.433,12.943,50,12.943z M31.62,20.164l2.685,4.65c-3.829,2.396-7.095,5.661-9.49,9.49l-4.65-2.685  C23.034,26.979,26.979,23.034,31.62,20.164z M19.164,33.352l4.65,2.685c-2.126,3.976-3.323,8.438-3.475,12.964h-5.373  C15.122,43.533,16.568,38.143,19.164,33.352z M14.966,51h5.373c0.152,4.526,1.348,8.988,3.475,12.964l-4.65,2.685  C16.568,61.856,15.122,56.467,14.966,51z M20.164,68.38l4.65-2.685c2.395,3.828,5.661,7.095,9.49,9.49l-2.685,4.65  C26.978,76.966,23.033,73.021,20.164,68.38z M49,85.034c-5.469-0.156-10.858-1.602-15.649-4.198l2.685-4.65  c3.975,2.127,8.437,3.323,12.964,3.476V85.034z M51,20.339v-5.373c5.468,0.156,10.857,1.602,15.649,4.197l-2.685,4.65  C59.988,21.688,55.526,20.491,51,20.339z M65.695,24.814l2.684-4.65c4.642,2.87,8.587,6.815,11.456,11.456l-4.649,2.685  C72.79,30.474,69.523,27.208,65.695,24.814z M76.186,36.035l4.65-2.685c2.596,4.792,4.041,10.181,4.197,15.649h-5.372  C79.509,44.472,78.313,40.01,76.186,36.035z M51,85.034v-5.373c4.526-0.152,8.988-1.349,12.964-3.475l2.685,4.65  C61.857,83.433,56.468,84.878,51,85.034z M68.38,79.836l-2.685-4.649c3.83-2.396,7.096-5.661,9.491-9.491l4.649,2.684  C76.965,73.021,73.02,76.967,68.38,79.836z M80.836,66.648l-4.649-2.685c2.126-3.976,3.322-8.438,3.475-12.964h5.372  C84.877,56.467,83.432,61.856,80.836,66.648z"/><text x="0" y="115" fill="#000000" font-size="5px" font-weight="bold" font-family="'Helvetica Neue', Helvetica, Arial-Unicode, Arial, Sans-serif">Created by Martin Smith</text><text x="0" y="120" fill="#000000" font-size="5px" font-weight="bold" font-family="'Helvetica Neue', Helvetica, Arial-Unicode, Arial, Sans-serif">from the Noun Project</text></svg>